<!-- sample rectangle -->
<svg width="36" height="36" viewBox="0 0 36 36" fill="none" xmlns="http://www.w3.org/2000/svg">
<path fill-rule="evenodd" clip-rule="evenodd" d="M17.908 35.1021C8.2183 35.1021 0.363281 27.3449 0.363281 17.776C0.363281 8.20709 8.2183 0.449951 17.908 0.449951C27.5976 0.449951 35.4526 8.20709 35.4526 17.776C35.4526 27.3449 27.5976 35.1021 17.908 35.1021ZM17.908 8.49419C15.3554 8.49419 15.0353 8.50488 14.0328 8.55005C13.0324 8.59511 12.3491 8.75203 11.7513 8.98149C11.1332 9.21866 10.6091 9.53604 10.0865 10.052C9.56402 10.5681 9.24264 11.0857 9.00248 11.6961C8.77011 12.2865 8.61122 12.9612 8.56559 13.9491C8.51985 14.9391 8.50903 15.2552 8.50903 17.776C8.50903 20.2968 8.51985 20.6129 8.56559 21.6029C8.61122 22.5908 8.77011 23.2656 9.00248 23.856C9.24264 24.4663 9.56402 24.9839 10.0865 25.5C10.6091 26.016 11.1332 26.3334 11.7513 26.5706C12.3491 26.8 13.0324 26.9569 14.0328 27.002C15.0353 27.0471 15.3554 27.0578 17.908 27.0578C20.4606 27.0578 20.7806 27.0471 21.7831 27.002C22.7835 26.9569 23.4668 26.8 24.0646 26.5706C24.6827 26.3334 25.2068 26.016 25.7294 25.5C26.2519 24.9839 26.5733 24.4663 26.8135 23.856C27.0458 23.2656 27.2047 22.5908 27.2503 21.6029C27.2961 20.6129 27.3069 20.2968 27.3069 17.776C27.3069 15.2552 27.2961 14.9391 27.2503 13.9491C27.2047 12.9612 27.0458 12.2865 26.8135 11.6961C26.5733 11.0857 26.2519 10.5681 25.7294 10.052C25.2068 9.53604 24.6827 9.21866 24.0646 8.98149C23.4668 8.75203 22.7835 8.59511 21.7831 8.55005C20.7806 8.50488 20.4606 8.49419 17.908 8.49419ZM17.908 10.1666C20.4176 10.1666 20.7149 10.1761 21.7059 10.2207C22.6223 10.262 23.12 10.4132 23.4512 10.5403C23.8899 10.7087 24.203 10.9098 24.5319 11.2346C24.8608 11.5594 25.0645 11.8686 25.235 12.3019C25.3637 12.6289 25.5168 13.1204 25.5586 14.0254C25.6038 15.0041 25.6134 15.2977 25.6134 17.776C25.6134 20.2544 25.6038 20.5479 25.5586 21.5267C25.5168 22.4316 25.3637 22.9231 25.235 23.2502C25.0645 23.6834 24.8608 23.9926 24.5319 24.3174C24.203 24.6422 23.8899 24.8433 23.4512 25.0117C23.12 25.1388 22.6223 25.29 21.7059 25.3313C20.715 25.376 20.4178 25.3854 17.908 25.3854C15.3982 25.3854 15.101 25.376 14.11 25.3313C13.1936 25.29 12.6959 25.1388 12.3647 25.0117C11.926 24.8433 11.6129 24.6422 11.284 24.3174C10.9552 23.9926 10.7515 23.6834 10.581 23.2502C10.4522 22.9231 10.2991 22.4316 10.2573 21.5267C10.2121 20.5479 10.2025 20.2544 10.2025 17.776C10.2025 15.2977 10.2121 15.0041 10.2573 14.0254C10.2991 13.1204 10.4522 12.6289 10.581 12.3019C10.7515 11.8686 10.9551 11.5594 11.284 11.2346C11.6129 10.9098 11.926 10.7087 12.3647 10.5403C12.6959 10.4132 13.1936 10.262 14.11 10.2207C15.1011 10.1761 15.3983 10.1666 17.908 10.1666ZM17.908 20.87C16.1777 20.87 14.775 19.4848 14.775 17.776C14.775 16.0673 16.1777 14.6821 17.908 14.6821C19.6383 14.6821 21.0409 16.0673 21.0409 17.776C21.0409 19.4848 19.6383 20.87 17.908 20.87ZM17.908 13.0097C15.2424 13.0097 13.0815 15.1436 13.0815 17.776C13.0815 20.4084 15.2424 22.5423 17.908 22.5423C20.5736 22.5423 22.7344 20.4084 22.7344 17.776C22.7344 15.1436 20.5736 13.0097 17.908 13.0097ZM24.053 12.8214C24.053 12.2062 23.548 11.7075 22.9251 11.7075C22.3023 11.7075 21.7973 12.2062 21.7973 12.8214C21.7973 13.4365 22.3023 13.9352 22.9251 13.9352C23.548 13.9352 24.053 13.4365 24.053 12.8214Z" fill="#677279"/>
</svg>




