<svg t="1717248951807" class="icon" viewBox="0 0 1024 1024" version="1.1" xmlns="http://www.w3.org/2000/svg" p-id="4288" width="200" height="200"><path d="M789.333333 1024c-58.837333 0-106.666667-47.872-106.666666-106.666667s47.829333-106.666667 106.666666-106.666666 106.666667 47.872 106.666667 106.666666-47.829333 106.666667-106.666667 106.666667z m0-170.666667c-35.285333 0-64 28.714667-64 64s28.714667 64 64 64 64-28.714667 64-64-28.714667-64-64-64zM362.666667 1024C303.829333 1024 256 976.128 256 917.333333S303.829333 810.666667 362.666667 810.666667s106.666667 47.872 106.666666 106.666666S421.504 1024 362.666667 1024z m0-170.666667c-35.285333 0-64 28.714667-64 64S327.381333 981.333333 362.666667 981.333333s64-28.714667 64-64S397.952 853.333333 362.666667 853.333333zM874.666667 768H382.250667a149.76 149.76 0 0 1-146.432-120.021333L131.84 128H21.333333a21.333333 21.333333 0 0 1 0-42.666667h128a21.333333 21.333333 0 0 1 20.906667 17.152L277.674667 639.573333A106.88 106.88 0 0 0 382.250667 725.333333H874.666667a21.333333 21.333333 0 0 1 0 42.666667z" p-id="4289"></path><path d="M841.984 597.333333H256a21.333333 21.333333 0 0 1 0-42.666666h585.984c32.213333 0 59.52-24.106667 63.488-56.064a21.674667 21.674667 0 0 1 23.808-18.517334 21.333333 21.333333 0 0 1 18.56 23.808A106.837333 106.837333 0 0 1 841.984 597.333333zM490.666667 256h-298.666667a21.333333 21.333333 0 0 1 0-42.666667h298.666667a21.333333 21.333333 0 0 1 0 42.666667zM789.333333 469.333333C659.968 469.333333 554.666667 364.074667 554.666667 234.666667S659.968 0 789.333333 0 1024 105.258667 1024 234.666667 918.698667 469.333333 789.333333 469.333333z m0-426.666666C683.477333 42.666667 597.333333 128.810667 597.333333 234.666667s86.144 192 192 192S981.333333 340.522667 981.333333 234.666667 895.189333 42.666667 789.333333 42.666667z" p-id="4290"></path><path d="M746.666667 341.333333a21.418667 21.418667 0 0 1-15.104-6.229333l-85.333334-85.333333a21.333333 21.333333 0 0 1 30.165334-30.165334L746.666667 289.834667l155.562666-155.562667a21.333333 21.333333 0 0 1 30.165334 30.165333l-170.666667 170.666667A21.248 21.248 0 0 1 746.666667 341.333333z" p-id="4291"></path></svg>