<?xml version="1.0" standalone="no"?><!DOCTYPE svg PUBLIC "-//W3C//DTD SVG 1.1//EN" "http://www.w3.org/Graphics/SVG/1.1/DTD/svg11.dtd">
<svg t="1716729717204" class="icon" viewBox="0 0 1024 1024" version="1.1" xmlns="http://www.w3.org/2000/svg" p-id="6888" 
xmlns:xlink="http://www.w3.org/1999/xlink" width="58" height="58"><path d="M426.666667 352c-39.104 0-77.077333 13.909333-100.266667 44.8-23.146667 30.890667-28.288 74.197333-16.106667 122.944a32 32 0 0 0 0.661334 2.389333c26.069333 78.165333 94.976 121.045333 178.410666 204.501334a32 32 0 0 0 45.269334 0c83.434667-83.456 152.341333-126.336 178.410666-204.501334C740.437333 439.893333 682.666667 352 597.333333 352c-38.954667 0-64.618667 16.533333-85.333333 33.664-20.714667-17.130667-46.378667-33.664-85.333333-33.664z m0 64c32 0 41.386667 11.946667 62.72 33.28a32 32 0 0 0 45.226666 0c21.333333-21.333333 30.72-33.28 62.72-33.28 42.666667 0 70.229333 40.106667 54.954667 85.866667-14.869333 44.629333-67.626667 87.573333-140.288 157.76-72.128-69.674667-124.501333-112.597333-139.733333-156.8-8.533333-35.477333-3.370667-56.042667 5.333333-67.626667 8.810667-11.776 24.170667-19.2 49.066667-19.2z m85.333333-362.666667C259.072 53.333333 53.333333 259.072 53.333333 512S259.072 970.666667 512 970.666667 970.666667 764.928 970.666667 512 764.928 53.333333 512 53.333333z m0 64c218.346667 0 394.666667 176.32 394.666667 394.666667S730.346667 906.666667 512 906.666667 117.333333 730.346667 117.333333 512 293.653333 117.333333 512 117.333333z" p-id="6889">
</path></svg>