<!-- sample rectangle -->
<svg width="36" height="36" viewBox="0 0 36 36" fill="none" xmlns="http://www.w3.org/2000/svg">
<g clip-path="url(#clip0_69_3448)">
<path opacity="0.07" d="M32.7589 0.0930176H3.54273C1.99062 0.0930176 0.803711 2.00042 0.803711 4.49472V30.9049C0.803711 33.3992 2.08192 35.3066 3.54273 35.3066H32.7589C34.311 35.3066 35.4979 33.3992 35.4979 30.9049V4.49472C35.4979 2.00042 34.2197 0.0930176 32.7589 0.0930176Z" fill="black"/>
<path d="M32.759 1.5603C33.7633 1.5603 34.585 2.88081 34.585 4.49477V30.905C34.585 32.5189 33.7633 33.8395 32.759 33.8395H3.54281C2.5385 33.8395 1.7168 32.5189 1.7168 30.905V4.49477C1.7168 2.88081 2.5385 1.5603 3.54281 1.5603H32.759Z" fill="white"/>
<path d="M22.6247 12.2711C22.8073 10.8038 22.6247 9.77677 22.0769 8.89643C21.5291 7.86937 20.5248 7.4292 19.2466 7.4292H15.5032C15.2293 7.4292 15.0467 7.72265 14.9554 8.16282L13.5859 22.9819C13.5859 23.2753 13.6772 23.5688 13.8598 23.5688H16.325L16.6902 18.5802L18.3336 15.3523L22.6247 12.2711Z" fill="#003087"/>
<path d="M22.6249 12.271L22.4423 12.5644C21.9858 16.6727 20.4337 18.1399 18.2425 18.1399H17.2382C16.9643 18.1399 16.7817 18.4334 16.6904 18.8735L16.1426 24.5958L15.96 26.063C15.96 26.3564 16.0513 26.6499 16.2339 26.6499H18.1512C18.4251 26.6499 18.6077 26.3564 18.6077 26.063V25.9163L18.9729 22.3949V22.2482C18.9729 21.9547 19.2468 21.6613 19.4294 21.6613H19.7033C21.6206 21.6613 23.0814 20.4875 23.4466 16.9661C23.6292 15.4989 23.5379 14.3251 23.0814 13.4448C22.9901 12.7112 22.8075 12.4177 22.6249 12.271Z" fill="#3086C8"/>
<path d="M22.0772 11.9775C21.9859 11.8308 21.8946 11.8308 21.8033 11.8308C21.712 11.8308 21.6207 11.8308 21.5294 11.6841C21.2555 11.5374 20.8903 11.5374 20.5251 11.5374H17.786C17.6947 11.5374 17.6034 11.5374 17.6034 11.6841C17.4208 11.8308 17.3295 11.9775 17.3295 12.271L16.6904 18.7268V18.8735C16.6904 18.4334 16.9643 18.1399 17.2382 18.1399H18.4251C20.7077 18.1399 22.1685 16.6727 22.625 12.5644V12.271C22.5337 12.1242 22.3511 11.9775 22.1685 11.9775H22.0772Z" fill="#012169"/>
</g>
<defs>
<clipPath id="clip0_69_3448">
<rect width="34.6942" height="35.2136" fill="white" transform="translate(0.803711 0.0930176)"/>
</clipPath>
</defs>
</svg>





