<!-- sample rectangle -->
<svg width="36" height="36" viewBox="0 0 36 36" fill="none" xmlns="http://www.w3.org/2000/svg">
<g clip-path="url(#clip0_69_3454)">
<path d="M32.8487 0.0930176H3.63257C2.08046 0.0930176 0.893555 2.00042 0.893555 4.49472V30.9049C0.893555 33.3992 2.17176 35.3066 3.63257 35.3066H32.8487C34.4009 35.3066 35.5878 33.3992 35.5878 30.9049V4.49472C35.5878 2.00042 34.3096 0.0930176 32.8487 0.0930176Z" fill="#B2FCE4"/>
<path d="M25.9094 10.0701L23.4443 7.72254L20.9792 5.37496C19.3358 3.90773 17.2359 5.81514 17.2359 8.89633V9.48322C17.2359 9.77667 17.3272 10.0701 17.5098 10.2168L18.6967 11.2439C19.0619 11.5373 19.4271 11.0972 19.4271 10.5103V9.3365C19.4271 8.7496 19.7923 8.30943 20.1575 8.60288L22.44 10.657L24.6312 12.8579C24.9964 13.1513 24.9964 13.8849 24.6312 14.1784L22.3487 16.2325L20.0662 18.5801C19.701 18.8735 19.3358 18.4333 19.3358 17.8465V17.2596C19.3358 14.1784 17.2359 12.271 15.5925 13.7382L13.1274 16.0858L10.6622 18.4333C9.01883 19.9006 9.01883 23.8621 10.6622 25.3293L13.1274 27.6769L15.5925 30.0245C17.2359 31.4917 19.3358 29.5843 19.3358 26.5031V25.9162C19.3358 25.6228 19.2445 25.3293 19.0619 25.1826L17.875 24.1556C17.5098 23.8621 17.1446 24.3023 17.1446 24.8892V26.063C17.1446 26.6499 16.7794 27.09 16.4142 26.7966L14.1317 24.7425L11.8492 22.5416C11.484 22.2482 11.484 21.5145 11.8492 21.2211L14.1317 19.167L16.4142 17.1128C16.7794 16.8194 17.1446 17.2596 17.1446 17.8465V18.4333C17.1446 21.5145 19.2445 23.4219 20.8879 21.9547L23.353 19.6071L25.8181 17.2596C27.5528 15.4989 27.5528 11.6841 25.9094 10.0701Z" fill="black"/>
</g>
<defs>
<clipPath id="clip0_69_3454">
<rect width="34.6942" height="35.2136" fill="white" transform="translate(0.893555 0.0930176)"/>
</clipPath>
</defs>
</svg>





