<!-- sample rectangle -->
<svg width="83" height="79" viewBox="0 0 83 79" fill="none" xmlns="http://www.w3.org/2000/svg">
<path d="M31.833 15.7277H62.5443V39.8816" stroke="#F50808" stroke-width="1.875"/>
<path d="M43.3498 26.0794L31.833 15.7277L43.3498 5.37598" stroke="#F50808" stroke-width="1.875" stroke-linecap="square"/>
<path d="M24.1554 77.8378C28.3957 77.8378 31.8332 74.7481 31.8332 70.9367C31.8332 67.1253 28.3957 64.0355 24.1554 64.0355C19.915 64.0355 16.4775 67.1253 16.4775 70.9367C16.4775 74.7481 19.915 77.8378 24.1554 77.8378Z" stroke="#0C64F7" stroke-width="1.875" stroke-linecap="square"/>
<path d="M70.2218 77.8378C74.4621 77.8378 77.8996 74.7481 77.8996 70.9367C77.8996 67.1253 74.4621 64.0355 70.2218 64.0355C65.9814 64.0355 62.5439 67.1253 62.5439 70.9367C62.5439 74.7481 65.9814 77.8378 70.2218 77.8378Z" stroke="#0C64F7" stroke-width="1.875" stroke-linecap="square"/>
<path d="M81.7403 19.1781L74.0624 53.6838H20.3176L12.6398 1.92529H1.12305" stroke="#0C64F7" stroke-width="1.875" stroke-linecap="square"/>
</svg>

