<!-- sample rectangle -->
<svg width="88" height="78" viewBox="0 0 88 78" fill="none" xmlns="http://www.w3.org/2000/svg">
<path d="M1.77246 14.8024H86.2286M1.77246 28.6047H86.2286M32.4838 56.2092H9.45029C5.20829 56.2092 1.77246 53.121 1.77246 49.3081V7.90126C1.77246 4.08838 5.20829 1.00012 9.45029 1.00012H78.5508C82.7928 1.00012 86.2286 4.08838 86.2286 7.90126V42.4069M17.1281 42.4069H36.3227" stroke="#0C64F7" stroke-width="1.875" stroke-linecap="square"/>
<path d="M55.5177 52.7584V45.8573C55.5177 42.0617 58.9727 38.9562 63.1955 38.9562C67.4183 38.9562 70.8733 42.0617 70.8733 45.8573V52.7584M63.1955 63.1102V66.5607M47.8398 52.7584H78.5512V76.9124H47.8398V52.7584Z" stroke="#F50808" stroke-width="1.875" stroke-linecap="square"/>
</svg>


